<svg width="68" height="68" viewBox="0 0 68 68" fill="none" xmlns="http://www.w3.org/2000/svg">
<circle cx="34" cy="34" r="34" fill="white"/>
<path d="M41.4375 33.9998C41.4379 34.1802 41.3917 34.3576 41.3033 34.5149C41.2148 34.6721 41.0872 34.8037 40.9328 34.897L31.365 40.75C31.2037 40.8488 31.0189 40.9027 30.8298 40.9062C30.6407 40.9097 30.4541 40.8627 30.2892 40.77C30.1259 40.6787 29.9899 40.5455 29.8951 40.3842C29.8004 40.2229 29.7503 40.0393 29.75 39.8522V28.1475C29.7503 27.9604 29.8004 27.7768 29.8951 27.6155C29.9899 27.4542 30.1259 27.321 30.2892 27.2297C30.4541 27.137 30.6407 27.0899 30.8298 27.0934C31.0189 27.0969 31.2037 27.1509 31.365 27.2496L40.9328 33.1027C41.0872 33.196 41.2148 33.3276 41.3033 33.4848C41.3917 33.642 41.4379 33.8195 41.4375 33.9998Z" fill="#222733"/>
</svg>
