<svg width="24" height="24" viewBox="0 0 24 24" fill="none" xmlns="http://www.w3.org/2000/svg">
<g id="quote_left_icon_177215 1">
<path id="Vector" d="M6.95325 10.4848C9.12225 10.4848 10.8878 12.2488 10.8878 14.4193C10.8878 16.5898 9.12375 18.3538 6.95325 18.3538C4.78425 18.3538 3.01875 16.5898 3.01875 14.4193L3 13.868C3 9.51127 6.53025 5.99902 10.869 5.99902V8.24152C9.3615 8.24152 7.96425 8.82952 6.89775 9.89527C6.6945 10.0985 6.51225 10.2995 6.32775 10.5388C6.531 10.502 6.75075 10.4848 6.95325 10.4848ZM17.0655 10.4848C19.2345 10.4848 21 12.2488 21 14.4193C21 16.5898 19.236 18.3538 17.0655 18.3538C14.8965 18.3538 13.131 16.5898 13.131 14.4193L13.1122 13.868C13.1122 9.51127 16.6425 5.99902 20.9813 5.99902V8.24152C19.4925 8.24152 18.0765 8.82952 17.01 9.89527C16.8068 10.0985 16.6245 10.2995 16.4587 10.5388C16.662 10.502 16.863 10.484 17.0662 10.484L17.0655 10.4833V10.4848Z" fill="#545E76"/>
</g>
</svg>
