<svg width="20" height="20" viewBox="0 0 20 20" fill="none" xmlns="http://www.w3.org/2000/svg">
<g id="groups_FILL1_wght700_GRAD200_opsz48 1" clip-path="url(#clip0_445_6468)">
<path id="Vector" d="M0.196045 14.9996V13.7309C0.196045 13.1631 0.486045 12.6993 1.06604 12.3394C1.64604 11.9795 2.42522 11.7996 3.40356 11.7996H3.67604C3.76938 11.7996 3.85604 11.804 3.93604 11.8126C3.81604 12.084 3.71818 12.3542 3.64244 12.6232C3.5667 12.8924 3.52882 13.1833 3.52882 13.4961V14.9996H0.196045ZM4.99604 14.9996V13.4996C4.99604 13.0196 5.1159 12.5917 5.3556 12.2159C5.5953 11.8401 5.93544 11.5147 6.37604 11.2396C6.8276 10.9729 7.36151 10.7663 7.97776 10.6196C8.594 10.4729 9.26384 10.3996 9.98728 10.3996C10.7254 10.3996 11.4024 10.4729 12.0183 10.6196C12.6341 10.7663 13.1667 10.9729 13.616 11.2396C14.056 11.5196 14.396 11.8463 14.636 12.2196C14.876 12.5929 14.996 13.0196 14.996 13.4996V14.9996H4.99604ZM16.456 14.9996V13.4882C16.456 13.1811 16.4227 12.8871 16.356 12.6062C16.2894 12.3253 16.2027 12.0613 16.096 11.8141C16.176 11.8045 16.2581 11.7996 16.3423 11.7996H16.596C17.5814 11.7996 18.361 11.9757 18.935 12.328C19.509 12.6802 19.796 13.1507 19.796 13.7396V14.9996H16.456ZM3.39252 11.2396C2.98154 11.2396 2.62604 11.0911 2.32604 10.7941C2.02604 10.4972 1.87604 10.1414 1.87604 9.72697C1.87604 9.2954 2.02649 8.93294 2.32738 8.63961C2.62828 8.34628 2.98403 8.19961 3.39464 8.19961C3.80891 8.19961 4.16938 8.34601 4.47604 8.63881C4.78271 8.93161 4.93604 9.295 4.93604 9.72897C4.93604 10.1361 4.78495 10.4896 4.48276 10.7896C4.18059 11.0896 3.81718 11.2396 3.39252 11.2396ZM16.5925 11.2396C16.1815 11.2396 15.826 11.0911 15.526 10.7941C15.226 10.4972 15.076 10.1414 15.076 9.72697C15.076 9.2954 15.2265 8.93294 15.5274 8.63961C15.8283 8.34628 16.184 8.19961 16.5946 8.19961C17.0089 8.19961 17.3694 8.34601 17.676 8.63881C17.9827 8.93161 18.136 9.295 18.136 9.72897C18.136 10.1361 17.9849 10.4896 17.6828 10.7896C17.3806 11.0896 17.0172 11.2396 16.5925 11.2396ZM10.0153 9.79961C9.30406 9.79961 8.68971 9.54392 8.17224 9.03253C7.65478 8.52114 7.39604 7.9097 7.39604 7.19821C7.39604 6.46581 7.65478 5.84961 8.17224 5.34961C8.68971 4.84961 9.30406 4.59961 10.0153 4.59961C10.7474 4.59961 11.3606 4.84806 11.8547 5.34497C12.3489 5.84186 12.596 6.45837 12.596 7.19449C12.596 7.90964 12.3489 8.52261 11.8547 9.03341C11.3606 9.54421 10.7474 9.79961 10.0153 9.79961Z" fill="#545E76"/>
</g>
<defs>
<clipPath id="clip0_445_6468">
<rect width="19.2" height="19.2" fill="white" transform="translate(0.39917 0.399902)"/>
</clipPath>
</defs>
</svg>
