<svg height="auto" viewBox="0 0 2000 1000" xmlns="http://www.w3.org/2000/svg"><path d="M0 583.35c21-45.396 63-243.422 105-226.978 42 16.444 63 240.83 105 309.198 42 68.368 63 91.679 105 32.644 42-59.035 63-286.94 105-327.82 42-40.88 63 65.779 105 123.418 42 57.64 63 217.729 105 164.78 42-52.95 63-336.038 105-429.524 42-93.486 63-105.63 105-37.905 42 67.726 63 364.874 105 376.535 42 11.66 63-322.926 105-318.23 42 4.697 63 334.308 105 341.713 42 7.405 63-330.401 105-304.685 42 25.716 63 407.539 105 433.265s63-248.267 105-304.635c42-56.367 63 82.845 105 22.797s63-294.523 105-323.037c42-28.514 63 52.74 105 180.467 42 127.726 63 383.386 105 458.163 42 74.777 84-67.422 105-84.278l5 330.762H0Z" fill="#444cf71a"/><path d="M0 583.35c21-45.396 63-243.422 105-226.978 42 16.444 63 240.83 105 309.198 42 68.368 63 91.679 105 32.644 42-59.035 63-286.94 105-327.82 42-40.88 63 65.779 105 123.418 42 57.64 63 217.729 105 164.78 42-52.95 63-336.038 105-429.524 42-93.486 63-105.63 105-37.905 42 67.726 63 364.874 105 376.535 42 11.66 63-322.926 105-318.23 42 4.697 63 334.308 105 341.713 42 7.405 63-330.401 105-304.685 42 25.716 63 407.539 105 433.265s63-248.267 105-304.635c42-56.367 63 82.845 105 22.797s63-294.523 105-323.037c42-28.514 63 52.74 105 180.467 42 127.726 63 383.386 105 458.163 42 74.777 84-67.422 105-84.278" fill="none" stroke="#444cf7" stroke-width="4"/><g fill="#444cf7"><circle cy="583.35" r="8"/><circle cx="105" cy="356.372" r="8"/><circle cx="210" cy="665.57" r="8"/><circle cx="315" cy="698.214" r="8"/><circle cx="420" cy="370.394" r="8"/><circle cx="525" cy="493.812" r="8"/><circle cx="630" cy="658.592" r="8"/><circle cx="735" cy="229.068" r="8"/><circle cx="840" cy="191.163" r="8"/><circle cx="945" cy="567.698" r="8"/><circle cx="1050" cy="249.468" r="8"/><circle cx="1155" cy="591.181" r="8"/><circle cx="1260" cy="286.496" r="8"/><circle cx="1365" cy="719.761" r="8"/><circle cx="1470" cy="415.126" r="8"/><circle cx="1575" cy="437.923" r="8"/><circle cx="1680" cy="114.886" r="8"/><circle cx="1785" cy="295.353" r="8"/><circle cx="1890" cy="753.516" r="8"/><circle cx="1995" cy="669.238" r="8"/></g></svg>