<svg height="auto" viewBox="0 0 2000 1000" xmlns="http://www.w3.org/2000/svg"><path d="M0 1000h80V452.614q0-40-40-40t-40 40ZM100 1000h80V678.894q0-40-40-40t-40 40ZM200 1000h80V153.002q0-40-40-40t-40 40ZM300 1000h80V397.383q0-40-40-40t-40 40ZM400 1000h80V234.267q0-40-40-40t-40 40ZM500 1000h80V710.02q0-40-40-40t-40 40ZM600 1000h80V341.53q0-40-40-40t-40 40ZM700 1000h80V366.237q0-40-40-40t-40 40ZM800 1000h80V574.377q0-40-40-40t-40 40ZM900 1000h80V792.136q0-40-40-40t-40 40ZM1000 1000h80V340.34q0-40-40-40t-40 40ZM1100 1000h80V518.254q0-40-40-40t-40 40ZM1200 1000h80V734.185q0-40-40-40t-40 40ZM1300 1000h80V721.574q0-40-40-40t-40 40ZM1400 1000h80V814.974q0-40-40-40t-40 40ZM1500 1000h80V332.07q0-40-40-40t-40 40ZM1600 1000h80V463.835q0-40-40-40t-40 40ZM1700 1000h80V599.195q0-40-40-40t-40 40ZM1800 1000h80V409.769q0-40-40-40t-40 40ZM1900 1000h80V576.81q0-40-40-40t-40 40Z" fill="#444cf7"/></svg>