<svg height="auto" viewBox="0 0 2000 1000" xmlns="http://www.w3.org/2000/svg"><path d="M0 1000h80V65.54q0-40-40-40t-40 40ZM100 1000h80V92.813q0-40-40-40t-40 40ZM200 1000h80V101.228q0-40-40-40t-40 40ZM300 1000h80V157.23q0-40-40-40t-40 40ZM400 1000h80V247.008q0-40-40-40t-40 40ZM500 1000h80V243.973q0-40-40-40t-40 40ZM600 1000h80V250.482q0-40-40-40t-40 40ZM700 1000h80V390.427q0-40-40-40t-40 40ZM800 1000h80V422.743q0-40-40-40t-40 40ZM900 1000h80V480.492q0-40-40-40t-40 40ZM1000 1000h80V407.903q0-40-40-40t-40 40ZM1100 1000h80V560.42q0-40-40-40t-40 40ZM1200 1000h80V452.507q0-40-40-40t-40 40ZM1300 1000h80V575.275q0-40-40-40t-40 40ZM1400 1000h80V583.963q0-40-40-40t-40 40ZM1500 1000h80V798.722q0-40-40-40t-40 40ZM1600 1000h80V501.739q0-40-40-40t-40 40ZM1700 1000h80V621.99q0-40-40-40t-40 40ZM1800 1000h80V877.83q0-40-40-40t-40 40ZM1900 1000h80V638.931q0-40-40-40t-40 40Z" fill="#444cf7"/></svg>